<svg width="65" height="71" viewBox="0 0 65 71" fill="none" xmlns="http://www.w3.org/2000/svg">
<g opacity="0.1">
<path d="M6.39223 45.9063C5.66144 45.6583 5.35998 44.9878 5.17729 44.1428C5.12248 43.8581 5.4422 43.2978 5.68884 43.307C6.15472 43.307 6.65714 43.3897 7.11389 43.4723C7.39707 43.5366 11.3251 45.2082 12.6771 45.7226C13.9708 46.2357 15.2336 46.8245 16.4589 47.486L23.7668 51.6651C24.3063 51.9767 24.8169 52.3363 25.2924 52.7397C26.9348 54.1039 28.7206 55.2835 30.618 56.2574C30.9183 56.4651 31.2621 56.6003 31.6229 56.6524C32.2715 56.6524 37.1038 59.7936 37.6793 60.3263C39.0222 61.6489 40.4198 62.8429 41.854 64.1012C42.055 64.2757 42.3381 64.3584 42.4021 64.7074C42.5665 65.4973 43.0872 65.7361 43.5439 66.0943C44.1829 66.5881 44.7929 67.1187 45.3709 67.6832C45.6169 68.0439 45.8136 68.4363 45.9556 68.8497C46.1383 69.2263 45.5719 69.7682 45.4166 69.7682C44.9873 69.7682 45.0421 70.255 44.905 70.5489C44.8624 70.6551 44.8038 70.7542 44.7315 70.8428C42.9407 70.5666 41.175 70.1458 39.4515 69.5845C39.4515 69.5845 39.0222 69.3824 38.4467 69.0518L36.3639 67.8945C34.7927 66.976 33.1575 66.1126 32.8104 65.9473C32.4652 65.7394 32.1566 65.4756 31.8969 65.1666C31.7599 65.0197 27.0189 62.4939 26.8819 62.3194C25.9127 61.7446 25.0554 60.9977 24.3515 60.115C24.2145 59.9351 24.0399 59.7877 23.8399 59.6833C22.2413 58.6363 20.7889 57.3872 19.2725 56.2023C18.5508 55.5961 17.6921 55.0818 16.9065 54.494C16.7675 54.3771 16.6391 54.248 16.5229 54.1082C16.372 53.9438 16.2069 53.7932 16.0296 53.6582C14.1021 52.3999 12.3756 50.8476 10.4299 49.6077C9.99139 49.3138 8.15527 47.5044 7.62544 47.2105C7.34226 47.0544 6.67541 45.9981 6.39223 45.9063Z" fill="white"/>
<path d="M1.55072 22.9261C0.689909 22.5255 0.103094 21.6981 0.0069187 20.7493C-0.0570257 20.4279 0.335776 19.8309 0.628093 19.9135C1.18532 20.0329 1.74255 20.1431 2.29065 20.2993C2.61037 20.4095 7.36053 22.7424 9.01395 23.4588C10.6026 24.1694 12.1544 24.9603 13.6636 25.8285C16.6964 27.6654 19.7018 29.5024 22.7163 31.275C23.3856 31.684 24.0266 32.1381 24.6347 32.6344C26.743 34.3063 28.9857 35.7993 31.3397 37.0981C31.7084 37.3617 32.1239 37.5519 32.5638 37.6584C33.3311 37.7778 39.5337 41.5895 40.2554 42.2508C42.0367 43.8122 43.8637 45.3001 45.6724 46.8431C45.9373 47.0544 46.2753 47.183 46.4032 47.5503C46.7046 48.3953 47.3167 48.7076 47.947 49.1393C48.7712 49.7264 49.5583 50.3644 50.3038 51.0497C50.6707 51.4537 50.9783 51.9084 51.2173 52.3999C51.4639 52.8224 50.8245 53.3918 50.6418 53.3735C50.1302 53.3735 50.2307 53.8786 50.0754 54.1817C50.0357 54.297 49.9736 54.4031 49.8927 54.494C47.7472 53.9468 45.6486 53.2281 43.617 52.3448L35.3956 47.5871C34.9639 47.3208 34.5704 46.9963 34.2263 46.6227C34.0436 46.4665 28.2247 43.0682 28.0054 42.9488C26.7937 42.2373 25.6842 41.3628 24.7077 40.3495C24.5172 40.14 24.2915 39.9659 24.0409 39.8352C22.0129 38.5585 20.1129 37.0798 18.1763 35.6561C17.1897 34.9214 16.1392 34.2876 15.1252 33.5988C14.9491 33.462 14.7813 33.3148 14.6228 33.1579C14.4192 32.9625 14.2025 32.7815 13.9742 32.616C11.5169 31.073 9.288 29.1625 6.83984 27.6195C6.28261 27.2521 3.89839 25.057 3.23154 24.662C2.78393 24.3222 1.91612 23.0639 1.55072 22.9261Z" fill="white"/>
<path d="M7.69855 3.56465C7.21918 3.32685 6.82849 2.94047 6.58409 2.46248C6.31171 1.96107 6.14971 1.40665 6.10907 0.836789C6.10907 0.469401 6.6663 -0.0816822 6.96775 0.0101649L7.88124 0.184675L8.84955 0.386738C8.95003 0.386738 9.34283 0.579617 9.95487 0.827605C10.5669 1.07559 11.3068 1.49809 12.1107 1.90222C13.7367 2.70129 15.5546 3.5922 16.4955 4.0147C18.3225 4.85051 20.0398 5.85164 21.7572 6.77012L32.1162 13.0065C32.8819 13.4722 33.6144 13.9909 34.3086 14.5588C36.7267 16.465 39.2996 18.164 42.0002 19.6379C42.4269 19.9333 42.9036 20.148 43.4069 20.2716C44.3204 20.391 51.336 24.864 52.1673 25.5437C54.2227 27.3071 56.342 28.9788 58.4339 30.7055C58.7353 30.9443 59.119 31.1004 59.2834 31.4954C59.6951 32.2623 60.3335 32.8817 61.1104 33.268C62.0635 33.9286 62.9784 34.6431 63.8509 35.4081C64.2664 35.8515 64.6254 36.3451 64.9197 36.8776C65.2303 37.346 64.5543 37.9155 64.3533 37.8971C63.7778 37.842 63.924 38.4115 63.7778 38.7329C63.7381 38.8482 63.676 38.9543 63.5951 39.0452C61.1517 38.3939 58.7558 37.5746 56.4242 36.5929L46.7686 31.3576C46.2697 31.0645 45.8094 30.7096 45.3983 30.3014C45.1791 30.1268 38.3827 26.4162 38.1544 26.205C36.8481 25.2865 35.4139 24.5793 34.3268 23.275C34.1004 23.0442 33.8381 22.8519 33.5504 22.7056C31.2027 21.2636 28.9829 19.6012 26.7631 17.9847C25.6213 17.158 24.4063 16.4508 23.237 15.6701C23.0317 15.5144 22.8364 15.3456 22.6524 15.1649C22.4175 14.9423 22.1672 14.7367 21.9033 14.5496C19.0807 12.7861 16.4863 10.6552 13.6819 8.91934C13.0333 8.50603 10.2929 5.98023 9.52553 5.52099C9.06878 5.24545 8.09135 3.7759 7.69855 3.56465Z" fill="white"/>
</g>
</svg>
