<svg width="99" height="90" viewBox="0 0 99 90" fill="none" xmlns="http://www.w3.org/2000/svg">
<g opacity="0.1">
<path d="M47.2121 16.6652C51.0164 17.2463 54.6995 18.4407 58.1185 20.2018C59.0131 20.6368 59.7789 21.1045 60.591 21.5914C61.3972 22.0683 62.1749 22.5916 62.9203 23.1587L65.1753 24.7834C65.8939 25.3741 66.5848 26.0059 67.2841 26.6076C67.7847 27.0636 68.321 27.4841 68.7752 27.9208L70.1889 29.3489L71.5971 30.7851C72.0508 31.2931 72.4495 31.8474 72.8838 32.4019C75.8516 36.1872 78.0659 40.5093 79.4069 45.1347C80.7146 49.6998 81.2878 54.4468 81.1049 59.1977L80.8424 62.3227C80.7928 62.8376 80.7869 63.3581 80.7017 63.8729L80.4516 65.4091C80.251 66.466 80.1464 67.4684 79.9378 68.4842L79.2378 71.5889C78.8937 72.861 78.476 74.1122 77.9868 75.3361C77.5716 76.5892 77.0669 77.8111 76.4765 78.9922C75.8786 80.1631 75.3188 81.3479 74.6197 82.5104L73.5155 84.1513C73.1457 84.701 72.6532 85.1682 72.2316 85.6712C71.1027 86.8901 70.7148 86.355 70.5198 84.6862C70.3618 83.6411 70.3379 82.5796 70.4487 81.5274C70.6067 80.2365 70.894 78.9643 71.3061 77.73C71.7665 76.5934 72.1536 75.4286 72.4652 74.2429C72.7787 73.0712 73.1905 71.9299 73.4384 70.7498C73.6863 69.5697 74.0351 68.4337 74.3349 67.2648L74.9909 63.749C75.726 59.018 75.6823 54.2012 74.8615 49.4899C74.3613 46.5881 73.4062 43.7853 72.0317 41.1851C71.691 40.5268 71.2598 39.9148 70.8726 39.2728C70.4965 38.6303 70.0867 38.0084 69.6447 37.4097L68.2716 35.6037L67.5959 34.7199L66.8267 33.9043L65.1528 32.0866C64.5846 31.5017 63.9312 30.9905 63.3247 30.4274C62.1023 29.3216 60.8052 28.3015 59.4426 27.3742C53.426 23.0156 46.003 21.0481 38.6051 21.8512C32.3 22.5454 26.2236 24.6376 20.8178 27.9758C16.686 30.5622 12.9085 33.6785 9.58189 37.2452C8.85776 38.0214 8.10116 38.74 7.35251 39.4996C4.52906 42.284 3.62383 43.1529 2.22575 43.2014C1.93288 43.2308 1.6122 43.3369 1.39884 43.3363C0.782848 43.4225 0.825448 41.3653 2.55142 38.6767C3.20839 37.7004 3.87087 36.7159 4.53335 35.7313C4.87011 35.2309 5.20136 34.7386 5.59533 34.2766C5.9893 33.8146 6.38857 33.3801 6.7852 32.9318C8.43488 31.1661 10.1965 29.5088 12.0591 27.9702C15.9108 24.7852 20.1825 22.1482 24.7525 20.1345C31.7713 16.8923 39.5414 15.6528 47.2046 16.5528L47.2121 16.6652Z" fill="white"/>
<path d="M44.9273 28.9183C47.7442 29.4713 50.4629 30.4372 52.9957 31.7849C53.6146 32.1179 54.2197 32.4892 54.8275 32.8387C55.4354 33.1881 55.988 33.6196 56.5683 34.01C57.7217 34.7941 58.8179 35.6592 59.8487 36.5988C61.4004 37.951 62.8075 39.4611 64.0475 41.1047C66.1966 44.0239 67.7738 47.3256 68.6959 50.8359C69.511 54.2989 69.7682 57.872 69.4577 61.4202L69.2634 63.6853C69.1711 64.4575 68.9969 65.2104 68.8992 65.9909C68.6353 67.5053 68.292 69.005 67.8707 70.4838C67.5996 71.4337 67.2057 72.3367 66.8718 73.2563L66.3492 74.6329L65.7011 75.949C64.9033 77.7347 63.8031 79.3697 62.4494 80.7814C61.5661 81.653 61.1967 81.2138 60.9311 79.9146C60.7347 79.123 60.644 78.3085 60.6614 77.4923C60.6915 77.0231 60.7482 76.5558 60.8313 76.0929C60.901 75.5941 61.0203 75.1035 61.1876 74.6282C61.8707 72.9424 62.3025 71.2067 62.8052 69.5068C62.9637 68.636 63.245 67.8122 63.4854 66.9608C63.6219 66.5448 63.7224 66.118 63.7859 65.685L64.0508 64.4091C64.7262 60.9864 64.8656 57.4812 64.4641 54.0195C63.7654 49.7521 61.8368 45.7864 58.915 42.6095L57.6974 41.3134C57.4935 41.1047 57.298 40.8659 57.0749 40.6681L56.3919 40.0774L55.0314 38.8878L53.5195 37.8704C51.5606 36.452 49.4035 35.3298 47.117 34.5397C44.294 33.5517 41.3044 33.1228 38.314 33.2766C33.6761 33.5338 29.1629 34.8986 25.1517 37.2568C22.0975 39.08 19.3208 41.3345 16.9075 43.9505C16.387 44.5299 15.834 45.0518 15.2726 45.6037C13.1841 47.6312 12.4774 48.2403 11.3042 48.2017C11.0497 48.2093 10.7977 48.2662 10.6255 48.2575C10.1111 48.2809 10.017 46.6562 11.2439 44.6211C11.6862 43.8579 12.1585 43.103 12.6528 42.3509C13.1337 41.589 13.6887 40.8765 14.3097 40.2238C18.0755 36.0747 22.7296 32.8323 27.9212 30.7412C33.304 28.5034 39.2023 27.8289 44.939 28.7951L44.9273 28.9183Z" fill="white"/>
<path d="M41.4888 42.8863C45.0285 43.5601 48.2666 45.3224 50.7531 47.9282C51.1741 48.4141 51.6172 48.8672 52.0493 49.3368C52.4813 49.8063 52.8255 50.3359 53.1752 50.8572C54.3183 52.7536 55.1229 54.8357 55.5532 57.0105C55.9733 59.135 56.0734 61.3116 55.8503 63.4681L55.6968 64.8785L55.3902 66.2693C55.2723 67.2032 54.9906 68.0983 54.7555 68.977C54.5906 69.5574 54.3329 70.0992 54.1353 70.6575L53.8047 71.484L53.3896 72.2774C52.9005 73.3722 52.1586 74.3357 51.2252 75.0881C50.596 75.5467 50.2755 75.1761 49.9503 74.2302C49.7238 73.7028 49.5663 73.1481 49.4816 72.5799C49.4424 72.0082 49.5071 71.4339 49.6725 70.8846C49.9854 69.9194 50.2488 68.939 50.4617 67.9472C50.5566 67.4599 50.682 66.979 50.837 66.5072C50.9819 66.0421 51.1016 65.5696 51.1958 65.0918C51.5872 63.1338 51.7353 61.1356 51.6368 59.1429C51.3801 56.6738 50.4362 54.3289 48.9124 52.3751C47.3504 50.1429 45.1497 48.4378 42.5988 47.4831C40.9865 46.9287 39.2776 46.7073 37.5751 46.8322C34.8562 47.013 32.2125 47.8151 29.847 49.1769C28.0653 50.2432 26.4482 51.5645 25.0472 53.0987C24.7463 53.4279 24.4237 53.7365 24.0814 54.0222C23.6448 54.446 23.1531 54.8088 22.6196 55.1006C22.4441 55.1865 22.2548 55.2408 22.0606 55.2608C21.8482 55.2635 21.6361 55.2483 21.4263 55.2154C21.235 55.1821 21.038 55.1925 20.896 55.1566C20.754 55.1206 20.5282 54.9091 20.5012 54.4022C20.4607 54.1379 20.4839 53.8674 20.5689 53.6134C20.6634 53.2899 20.7937 52.9778 20.9575 52.683C21.1976 52.1848 21.4645 51.6999 21.7569 51.2304L22.2207 50.5412C22.3823 50.318 22.56 50.107 22.7524 49.9097C25.0267 47.3743 27.8578 45.4024 31.021 44.1503C34.3201 42.7327 37.9377 42.2344 41.4899 42.7082L41.4888 42.8863Z" fill="white"/>
</g>
</svg>
