<svg width="66" height="70" viewBox="0 0 66 70" fill="none" xmlns="http://www.w3.org/2000/svg">
<g opacity="0.1">
<path d="M43.1479 66.5522C39.9797 67.7111 36.6804 68.4694 33.3259 68.8096C30.0033 69.1589 26.6508 69.1011 23.3421 68.6374C19.9992 68.1867 16.7408 67.2423 13.6724 65.8348C10.5168 64.3853 7.69426 62.2944 5.38273 59.694C1.98467 55.8398 0.0764629 50.8876 0.00538122 45.7386C-0.0369561 43.576 0.170644 41.4157 0.624014 39.3013C1.01207 37.1945 1.65117 35.1423 2.5275 33.1892C4.27895 29.2801 6.83504 25.7886 10.0272 22.9449C11.6632 21.5098 13.513 20.3414 15.5093 19.4824C17.6098 18.5841 19.8964 18.2132 22.1715 18.4015C26.6125 18.7246 30.7334 20.8437 33.5924 24.2745C34.8017 25.7806 35.742 27.4862 36.3715 29.3153C37.0526 31.0963 37.4663 32.9692 37.5992 34.8726C37.662 35.8572 37.6109 36.8459 37.4469 37.8187C37.2704 38.8167 36.9498 39.7834 36.4952 40.6882C35.5691 42.5026 34.1457 44.0127 32.3932 45.0403C30.1915 46.3626 27.6279 46.9456 25.0743 46.7046C23.7553 46.5634 22.4775 46.1603 21.3149 45.5186C20.0709 44.843 19.0417 43.8285 18.3455 42.5917C17.6737 41.3322 17.3889 39.9008 17.527 38.4787C17.6403 37.1325 18.0429 35.8271 18.7071 34.6526C19.0238 34.0719 19.4141 33.535 19.8682 33.0552C20.3421 32.5812 20.8691 32.1639 21.4386 31.8118C22.5957 31.0918 23.9594 30.782 25.3122 30.9318C25.9044 30.9896 26.4732 31.1933 26.9682 31.5248C27.2728 31.7448 27.368 31.8883 27.3013 31.9744C27.2347 32.0605 26.4067 31.9744 25.3122 32.2709C23.9745 32.6789 22.9126 33.7069 22.457 35.0352C22.1185 35.7876 21.8694 36.5773 21.7146 37.3882C21.5766 38.1725 21.6025 38.9771 21.7908 39.7508C21.9228 40.3274 22.2246 40.8507 22.6568 41.2525C23.2049 41.7443 23.8552 42.107 24.5603 42.3143C26.1815 42.7643 27.9068 42.6462 29.4523 41.9795C30.9897 41.3878 32.2499 40.2373 32.9833 38.756C33.6035 37.1208 33.7 35.3317 33.2593 33.6387C33.0435 32.6802 32.7539 31.74 32.3932 30.8266C32.1933 30.3579 31.9934 29.8701 31.7745 29.4301C31.5556 28.9901 31.3558 28.6362 31.1083 28.2536C30.0732 26.7275 28.6937 25.4689 27.0824 24.5806C25.4429 23.6627 23.6373 23.0838 21.7717 22.878C20.8552 22.7818 19.93 22.8108 19.0212 22.9641C18.0978 23.1247 17.199 23.4044 16.3468 23.7962C15.2512 24.3219 14.2143 24.9632 13.2536 25.7092C12.2629 26.4907 11.3454 27.3615 10.5126 28.3109C8.78673 30.2551 7.41437 32.4891 6.45819 34.9109C5.99096 36.1036 5.63103 37.3361 5.38273 38.5934C5.23996 39.2056 5.15431 39.8656 5.05913 40.5065C4.9595 41.14 4.89594 41.7787 4.86878 42.4195C4.64735 44.9558 4.89583 47.5115 5.60163 49.9568C5.99476 51.2562 6.53777 52.505 7.21959 53.6776C7.93358 54.8266 8.77315 55.8917 9.72267 56.8532C11.7271 58.7895 14.1 60.299 16.6989 61.2914C22.1328 63.3058 27.9986 63.8468 33.7066 62.8601C35.4614 62.6101 37.1929 62.2167 38.8841 61.6836C40.5688 61.1569 42.2004 60.4715 43.757 59.6367C45.3229 58.8243 46.808 57.8634 48.1921 56.7671C49.5713 55.6672 50.8458 54.4408 51.9991 53.1037C55.5756 49.0081 58.0118 44.0354 59.061 38.6891C59.5705 36.0241 59.721 33.3023 59.5083 30.597C59.2984 27.9063 58.6988 25.2608 57.7285 22.7441C56.9508 20.8171 55.9476 18.9901 54.7401 17.3015C53.5311 15.6499 52.16 14.1246 50.6476 12.7485C49.1422 11.429 47.4988 10.2777 45.7461 9.31466C43.9935 8.40828 42.1493 7.69319 40.245 7.18164C38.5663 6.79376 36.8553 6.56321 35.1342 6.49295C31.9078 6.31121 29.7664 6.59817 28.2055 6.49295C27.529 6.50497 26.8548 6.4114 26.2068 6.21556C25.6585 6.06761 25.14 5.82486 24.6745 5.49818C24.2096 5.24437 23.7698 4.9465 23.3611 4.60863C22.8186 4.04429 23.1803 3.29821 24.389 2.44691C26.2718 1.28062 28.3873 0.545796 30.5849 0.294765C32.7637 -0.00660318 34.9679 -0.0771342 37.1614 0.084333C39.4233 0.262199 41.6581 0.695355 43.8236 1.37562C46.0376 2.07248 48.1595 3.03599 50.1432 4.24515C51.13 4.84906 52.0832 5.50685 52.9984 6.21556C53.4647 6.56947 53.893 6.96164 54.3404 7.34425C54.7948 7.71368 55.23 8.10637 55.6442 8.52075L56.872 9.76422C57.2907 10.1851 57.6429 10.6442 58.0236 11.0842C58.7837 11.9793 59.4954 12.9148 60.1555 13.8868C61.501 15.8564 62.6367 17.9627 63.5437 20.171C65.3122 24.6088 66.142 29.368 65.9802 34.1457C65.7233 41.2075 63.4539 48.0466 59.4417 53.8498C55.4689 59.6789 49.826 64.1559 43.2621 66.6861L43.1479 66.5522Z" fill="white"/>
</g>
</svg>
