<svg width="58" height="57" viewBox="0 0 58 57" fill="none" xmlns="http://www.w3.org/2000/svg">
<g opacity="0.1">
<path d="M44.0981 55.1774C44.256 55.4935 43.8929 55.7464 43.3089 56.0388C43.0324 56.1321 42.733 56.1321 42.4565 56.0388C42.2777 55.8463 42.1141 55.6402 41.9672 55.4223C41.8024 55.0084 41.7038 54.571 41.6752 54.1263C41.6752 53.7944 41.612 53.4388 41.5962 53.1227C41.5805 52.8066 41.5962 52.5142 41.5962 52.3324C41.6164 51.5823 41.7577 50.8404 42.0145 50.1355C42.5567 48.7152 43.3068 47.3836 44.2402 46.1842C44.4633 45.9127 44.73 45.6803 45.0295 45.4967L47.8865 43.4973C48.0673 43.4052 48.22 43.266 48.3285 43.0943C48.8296 42.6681 49.4086 42.3434 50.0333 42.1381C50.4594 41.9879 50.9014 41.8536 51.2566 41.7508C51.5164 41.6964 51.7805 41.6647 52.0458 41.656C52.574 41.672 53.101 41.7168 53.6243 41.7904C54.1319 41.8445 54.6355 41.9316 55.1318 42.0511C55.2659 42.0906 55.4238 42.0511 55.5343 42.225C55.8026 42.6517 56.0946 42.6043 56.3867 42.6596C56.7886 42.7628 57.1721 42.9281 57.5232 43.1496C57.7084 43.3158 57.8586 43.5173 57.9652 43.7423C58.0914 43.9399 57.8389 44.493 57.7757 44.5326C57.5626 44.6827 57.6258 44.983 57.5705 45.228C57.5551 45.3136 57.534 45.3981 57.5074 45.4809C57.1607 45.6799 56.7927 45.8389 56.4103 45.955C56.0492 46.1083 55.6804 46.2429 55.3054 46.3581H54.8871C54.5934 46.3798 54.301 46.4167 54.011 46.4687L53.5375 46.5477L53.1192 46.6742L52.6141 46.8322C52.4716 46.868 52.3225 46.868 52.18 46.8322C51.8573 46.9396 51.5475 47.0827 51.2566 47.259C50.9604 47.4226 50.6733 47.602 50.3963 47.7963C50.0623 48.0283 49.6729 48.1674 49.2677 48.1994C49.1829 48.1993 49.1034 48.2406 49.0546 48.31L48.2101 48.9264L47.7681 49.2267L47.3577 49.5823C47.2177 49.7001 47.0907 49.8326 46.9789 49.9775L46.6632 50.4279C46.6081 50.4738 46.5501 50.516 46.4896 50.5543C46.4113 50.5962 46.3417 50.6525 46.2844 50.7203C45.7728 51.4353 45.3981 52.2392 45.1794 53.0911C45.0892 53.3144 44.9782 53.5287 44.8479 53.7312C44.745 53.9588 44.6682 54.1974 44.6191 54.4424C44.6191 54.5135 44.4928 54.64 44.3586 54.7822C44.2244 54.9245 44.0745 55.1141 44.0981 55.1774Z" fill="white"/>
<path d="M27.1452 50.491C27.2447 51.2146 26.9889 51.9416 26.4585 52.443C26.2928 52.6406 25.7403 52.6959 25.6693 52.443C25.4562 52.0321 25.2273 51.6527 25.0379 51.1707C24.9428 50.8911 24.8767 50.6024 24.8406 50.3093C24.7011 49.7312 24.5957 49.1454 24.5249 48.5549C24.4596 47.8773 24.4333 47.1966 24.446 46.516V45.623L24.4933 44.9118C24.5835 43.3985 24.8782 41.9045 25.3694 40.4705C26.3675 37.5432 27.819 34.7911 29.6707 32.315C30.0728 31.7612 30.539 31.2572 31.0598 30.8136C32.8909 29.3358 34.6351 27.8501 36.4898 26.4434C36.8222 26.2287 37.118 25.9618 37.3659 25.6531C37.685 25.3432 38.0401 25.0726 38.4234 24.8471C39.1184 24.3991 39.8378 23.9902 40.5781 23.6222C41.3356 23.2436 42.1128 22.9059 42.9063 22.6106C43.3813 22.4368 43.8662 22.2916 44.3586 22.176C46.4425 21.814 48.5622 21.7026 50.6725 21.8441C50.9865 21.8288 51.2985 21.9027 51.5722 22.0575C52.1284 22.434 52.7797 22.645 53.4506 22.666C53.8881 22.761 54.318 22.8878 54.7371 23.0453C55.1475 23.227 55.5263 23.4483 55.9446 23.6617C56.3156 23.9395 56.6498 24.2635 56.9391 24.6258C57.2153 24.9182 56.8128 25.3449 56.6786 25.3608C56.2761 25.4082 56.4498 25.7638 56.3866 25.9851C56.3708 26.0658 56.3415 26.1433 56.2998 26.2142C55.5327 26.2681 54.7688 26.3605 54.011 26.4908C52.8982 26.7121 51.8485 26.9729 51.6433 27.0045C50.647 27.1036 49.6565 27.254 48.6757 27.4549C47.5423 27.7209 46.4374 28.0967 45.3767 28.5771C45.0458 28.6985 44.7012 28.7782 44.3507 28.8142C43.5766 29.1548 42.8322 29.5592 42.125 30.0233C41.0753 30.6634 40.0966 31.4221 40.0177 31.4695C39.5985 31.7277 39.1929 32.0073 38.8023 32.3071C38.3895 32.5983 37.9378 32.8297 37.4606 32.9947C37.2735 33.0723 37.1062 33.1912 36.9712 33.3424C36.3477 33.9351 35.7163 34.5041 35.0849 35.0889C34.4285 35.6486 33.8015 36.2421 33.2065 36.8669C32.9 37.1858 32.6201 37.5294 32.37 37.8943C32.1095 38.242 31.8569 38.6055 31.5807 38.9769C31.4765 39.1012 31.3658 39.2199 31.2492 39.3326C31.0968 39.4698 30.9663 39.6297 30.8625 39.8067C29.7238 41.5756 28.8963 43.5268 28.4158 45.5756C28.0441 46.6451 27.7797 47.749 27.6266 48.871C27.4121 49.3934 27.2508 49.9362 27.1452 50.491Z" fill="white"/>
<path d="M2.83649 44.5246C2.86838 44.8188 2.86838 45.1155 2.83649 45.4097C2.81054 45.6777 2.75765 45.9425 2.67864 46.1999C2.49244 46.7422 2.22643 47.2536 1.8894 47.7172C1.66841 48.0254 0.973878 48.0333 0.847599 47.6619C0.618718 46.9507 0.381945 46.2157 0.192527 45.4571C0.126923 44.9725 0.0926513 44.4841 0.0899255 43.9951C0.0899255 43.6 0.0899254 43.1337 0.026786 42.6359C-0.0363535 42.138 0.026786 41.5927 0.0662482 41.0553C0.133736 39.0427 0.350055 37.0379 0.713428 35.0573C1.14538 32.5942 1.91007 30.2015 2.98645 27.9449C5.20657 23.4361 8.0817 19.2817 11.5182 15.6168C12.2814 14.8078 13.1046 14.0575 13.9806 13.3725C17.0034 11.057 20.0025 8.78899 23.1674 6.679C23.7346 6.38256 24.2536 6.00152 24.7064 5.54892C25.2622 5.06879 25.8682 4.65016 26.5138 4.30031C27.0189 4.03162 27.5635 3.68391 28.187 3.39151L30.1364 2.50642C32.1692 1.63262 34.2844 0.965448 36.4504 0.514963C39.8438 -0.0139623 43.2882 -0.135996 46.7105 0.151443C47.2039 0.123944 47.6967 0.216117 48.1469 0.420131C49.0808 0.942698 50.1128 1.26561 51.1776 1.36844C51.8801 1.55811 52.5746 1.73987 53.2612 1.96114C53.9479 2.18241 54.6029 2.50642 55.258 2.79882C55.8716 3.18577 56.443 3.63604 56.9628 4.14226C57.4521 4.5611 56.8444 5.09057 56.6234 5.09848C55.9762 5.09848 56.2998 5.58844 56.2288 5.88874C56.2137 5.99683 56.1731 6.09976 56.1104 6.18904C55.7028 6.19679 55.2955 6.16236 54.895 6.0863L54.3346 6.00728H53.6874L52.2984 5.95196L50.8856 6.02308C50.4602 6.03354 50.0358 6.07049 49.6149 6.13372C49.1103 6.21339 48.6019 6.26615 48.0917 6.29177C48.0443 6.29177 47.3814 6.3708 46.4027 6.3708C45.1877 6.43566 43.9779 6.57553 42.7801 6.78963C40.7589 7.13506 38.7764 7.67766 36.8608 8.40967C36.2774 8.60297 35.6777 8.74315 35.0692 8.82851C34.9981 8.82851 34.4694 9.07349 33.7196 9.39749C32.9698 9.7215 32.0148 10.2352 31.0519 10.7093C29.1341 11.6972 27.3109 12.8509 27.161 12.9221C26.3717 13.3172 25.6851 13.8071 24.9353 14.2339C24.1937 14.7034 23.3988 15.0827 22.5676 15.364C22.2489 15.5122 21.9537 15.7066 21.6915 15.9409C19.2947 17.7483 16.9997 19.6875 14.8172 21.7493C14.2884 22.3025 13.7754 22.8793 13.2387 23.4562L11.8181 25.258C11.6366 25.4714 11.4313 25.6611 11.2419 25.8665C11.0011 26.117 10.7745 26.3809 10.5632 26.6568C9.51086 28.1583 8.55324 29.6993 7.69034 31.2798C7.23258 32.0701 6.83795 32.8603 6.41966 33.6901C6.00136 34.5199 5.71723 35.3655 5.4331 36.2189C5.31778 36.5748 5.18072 36.9231 5.0227 37.2621C4.82538 37.7362 4.56493 38.2973 4.38341 38.8821C4.20188 39.4669 3.973 40.0517 3.82305 40.5575C3.67309 41.0632 3.62573 41.5137 3.62573 41.7587C3.49367 42.2307 3.33558 42.695 3.15219 43.1495C2.98496 43.5914 2.87875 44.054 2.83649 44.5246Z" fill="white"/>
</g>
</svg>
