<svg width="78" height="83" viewBox="0 0 78 83" fill="none" xmlns="http://www.w3.org/2000/svg">
<g opacity="0.1">
<path d="M26.3886 54.0441C25.6601 53.5631 24.9909 52.9977 24.395 52.3597C23.7984 51.7568 23.2698 51.0901 22.819 50.3717C21.8981 48.944 21.2735 47.3458 20.9823 45.672C20.9221 45.0599 20.8104 44.4532 20.7806 43.8517C20.7512 43.2514 20.7594 42.6499 20.805 42.0506C21.0166 39.9998 21.5259 37.9907 22.3167 36.0867C22.7167 35.139 23.0688 34.2163 23.5651 33.3075L24.2116 31.9623L24.9348 30.6597C25.3673 29.888 25.7874 29.1147 26.2413 28.3715C26.6952 27.6283 27.1099 26.8478 27.5692 26.1117C28.1651 25.1725 28.7449 24.2118 29.3586 23.2814C29.9894 22.3526 30.7296 21.503 31.5633 20.7509C32.048 20.2408 32.1017 20.4009 31.9875 21.033C31.9241 21.3481 31.8664 21.8039 31.7823 22.3576C31.7282 22.6339 31.6538 22.9059 31.5599 23.1714L31.4096 23.6078C31.328 23.7361 31.2642 23.8733 31.1756 24.007C28.8519 27.8003 26.7379 31.7181 24.8431 35.7428C23.752 38.1507 23.1754 40.7598 23.1502 43.4032C23.116 44.7931 23.3556 46.1762 23.8553 47.4737L24.3024 48.407L24.849 49.3099L25.4917 50.1627L26.2107 50.9246C27.4494 52.1465 29.0161 52.9825 30.7207 53.3313C33.4624 53.7785 36.2584 53.7788 39.0001 53.3321C41.1797 53.0601 43.3197 52.6175 45.6029 52.5126C46.1066 52.5008 46.6012 52.4623 47.1192 52.4843C49.0206 52.7451 49.6018 53.1763 49.7776 53.8237C49.8323 53.9525 49.8795 54.0843 49.9191 54.2185C49.9822 54.5387 49.1269 54.8824 47.9504 54.8441C44.3588 54.854 40.4436 55.7208 36.1424 55.9423C34.5236 56.0879 32.8938 56.057 31.2817 55.8501C29.5444 55.5991 27.8758 54.9993 26.3762 54.0869L26.3886 54.0441Z" fill="#3C3C3C"/>
<path d="M23.2974 40.8186C22.7252 42.9536 22.7767 45.2077 23.4456 47.3144C23.6888 47.7997 23.8572 48.319 24.1324 48.8025L24.5719 49.5187L24.788 49.8795L25.029 50.1993C25.3344 50.6239 25.6869 51.0124 26.0799 51.3573C26.285 51.5259 26.4687 51.7106 26.6738 51.8792L27.3332 52.296C28.7751 53.0651 30.3635 53.5201 31.9939 53.6309C35.2901 53.8983 38.6073 53.7256 41.8579 53.1173L47.0831 52.244L49.6789 51.859L52.319 51.4295C55.5619 50.8286 58.876 50.7119 62.1532 51.0832C64.2521 51.3958 66.3063 51.9575 68.2722 52.7565C69.2427 53.1654 70.1678 53.6745 71.0325 54.2755C71.4603 54.5771 71.8899 54.8662 72.3106 55.1732L73.5036 56.1796C74.4773 57.0281 74.1092 57.2051 72.9273 57.1153C72.3203 57.0935 71.5547 56.9351 70.6095 56.8785C70.1395 56.8315 69.6447 56.781 69.1408 56.7038C68.8819 56.6592 68.6202 56.6331 68.3575 56.6255C68.1135 56.5531 67.8482 56.4968 67.5989 56.4172C65.8311 55.9065 64.0088 55.6077 62.1704 55.5272C60.3525 55.4378 58.5308 55.4597 56.7156 55.593C54.8074 55.8043 52.9117 56.1169 51.0367 56.5296C50.5849 56.6249 49.843 56.7494 49.416 56.8038L47.941 56.9905L44.8985 57.3889C42.4343 57.6971 39.9099 58.162 37.2373 58.4599C34.4742 58.8465 31.6644 58.7377 28.9394 58.1388C28.1554 57.9414 27.3888 57.6806 26.6471 57.3592L25.5247 56.8456L24.4678 56.1824C23.7735 55.731 23.1271 55.2101 22.5385 54.6277C21.978 54.0364 21.4502 53.4149 20.9574 52.7661C19.1308 50.1518 18.1509 47.0397 18.1501 43.8505C18.1832 41.9719 18.4859 40.1078 19.0488 38.3152C19.6038 36.5956 20.3081 34.9277 21.1536 33.3307C22.4112 30.9846 23.8485 28.7392 25.4525 26.6148C25.8446 26.0853 26.2242 25.5541 26.5737 25.0568C26.9232 24.5594 27.294 24.046 27.6309 23.5024C27.9678 22.9588 28.287 22.4509 28.5795 21.9074C28.8858 21.3746 29.1644 20.8262 29.414 20.2646C30.99 16.8981 31.736 13.2028 31.5893 9.48854C31.5811 9.09492 31.5493 8.70215 31.4941 8.31233C31.4541 7.9191 31.4194 7.53297 31.3668 7.13798C31.2997 6.07749 31.3175 5.01331 31.4201 3.95566C31.5242 3.31456 31.8066 2.71567 32.2349 2.22745C32.404 2.00038 32.5871 1.78419 32.7834 1.58015C33.1103 1.3338 33.5057 1.45927 34.014 1.95644C34.7367 2.69148 35.277 3.5857 35.5915 4.56732C35.9571 5.48975 36.2206 6.44941 36.3775 7.42916L36.5304 8.91847C36.5618 9.41851 36.5612 9.9204 36.5588 10.4348C36.5576 12.4706 36.313 14.4991 35.8303 16.4769C34.824 20.4231 33.1004 24.1505 30.7456 27.4731L28.3631 30.8618C27.6145 31.9385 26.93 33.056 26.258 34.1307C24.9785 36.2232 24.0112 38.4911 23.3865 40.8629L23.2974 40.8186Z" fill="#3C3C3C"/>
<path d="M44.5305 20.6735C45.3665 20.8176 46.1917 21.0185 47.0003 21.2748C47.4085 21.4012 47.8098 21.5488 48.2027 21.717C48.6006 21.8501 48.9902 22.0067 49.3695 22.186C50.1416 22.5698 50.8823 23.0139 51.5847 23.514C51.9306 23.7659 52.2978 24.0018 52.6205 24.2822L53.5533 25.1504L54.0188 25.5907C54.1474 25.7613 54.2705 25.9248 54.3991 26.0953L55.2466 27.0278C55.7553 27.7029 56.1843 28.4939 56.6415 29.2191C57.4068 30.7983 57.8734 32.5055 58.018 34.2544C58.2384 36.6511 57.9937 39.0677 57.2974 41.3715C55.9866 44.9564 54.2919 48.389 52.243 51.6095C51.2908 53.1849 50.3866 54.6909 49.5038 56.2697C48.488 58.0269 47.466 59.3765 46.5689 60.9216C44.9766 63.5528 43.7987 66.4134 43.0767 69.4029C42.2377 73.2223 42.0995 77.1623 42.6689 81.031C42.8105 82.2836 42.4937 82.2772 41.616 81.3787C41.4339 81.137 41.1664 80.8707 40.8951 80.5402C40.5917 80.1735 40.3216 79.7804 40.088 79.3657C39.4082 78.3814 38.9458 77.2637 38.7315 76.0869C37.997 71.4856 38.6068 66.77 40.4875 62.5069C41.3696 60.4545 42.4106 58.4742 43.6011 56.5839L44.4506 55.2418L44.8692 54.6144L45.2328 54.0619L46.075 52.6806L46.9475 51.31C48.3524 49.1884 49.6144 46.9755 50.7251 44.6861C51.7743 42.541 52.5597 40.2766 53.0645 37.9426C53.8154 35.0366 53.1412 31.9466 51.248 29.6175L50.7125 28.9068L50.0632 28.2818C49.6214 27.8561 49.1416 27.4717 48.6297 27.1336C48.3795 26.9618 48.1161 26.81 47.842 26.6797C47.5791 26.5187 47.3031 26.38 47.017 26.2652C44.0136 25.1202 40.7554 24.8138 37.5912 25.3789C35.0483 25.7615 32.5408 26.3505 30.0935 27.1401C28.8824 27.529 27.5735 27.9805 26.2627 28.3554C24.9519 28.7304 23.6267 29.0716 22.2854 29.3469C18.1185 30.3389 13.8148 30.6254 9.55319 30.1945C8.58904 30.0999 7.63326 29.9338 6.69377 29.6973C3.19191 28.4363 2.45586 27.2082 2.34623 25.9537C2.30266 25.6759 2.28475 25.3948 2.29271 25.1138C2.35586 24.7096 2.77197 24.5521 3.43752 24.5185C3.7774 24.4964 4.16724 24.5257 4.63534 24.5407C5.10345 24.5557 5.58423 24.6614 6.15214 24.7348C6.96053 24.9056 7.81477 24.8859 8.61781 25.0496L9.86404 25.2247L11.0781 25.3572C12.7484 25.463 14.4238 25.4586 16.0935 25.3441C17.8159 25.2213 19.5283 24.9844 21.2193 24.6347C22.9479 24.2871 24.6538 23.8351 26.3277 23.2812L28.3533 22.6128C29.0594 22.3816 29.7761 22.1646 30.4982 21.9547C31.946 21.5546 33.417 21.1703 34.9417 20.9017C38.0956 20.2374 41.3405 20.1216 44.5338 20.5596L44.5305 20.6735Z" fill="#3C3C3C"/>
<path d="M23.0001 14.1335L20.7931 15.6407C20.5387 15.8547 20.273 16.0549 19.9971 16.2405C18.9573 16.8124 17.8906 17.3487 16.856 17.8832C16.3867 18.1032 15.9584 18.3925 15.5105 18.6409C14.9731 19.0202 14.3765 19.3078 13.7451 19.492C13.5406 19.5459 13.426 19.2756 13.4306 18.9268C13.4077 18.5415 13.5484 18.1645 13.818 17.8883C14.7938 17.0729 15.8284 16.3306 16.9133 15.6673C17.5613 15.2207 18.1597 14.7063 18.6985 14.1326C19.4091 13.5971 20.1198 13.0616 20.793 12.4763L22.1149 11.4802C22.7901 10.9714 23.4652 10.4626 24.0904 9.90237C24.3341 9.68168 24.5591 9.44128 24.7633 9.1836L25.0846 8.79666C25.2095 8.69151 25.3399 8.59318 25.4754 8.50211C25.5837 8.40942 25.6976 8.32356 25.8166 8.24506C26.2805 7.97348 26.544 8.04229 26.9704 8.48982C27.0561 8.60353 27.1773 8.69046 27.2755 8.80593C27.5667 9.14584 27.6357 9.62329 27.4527 10.0318C27.2451 10.5986 26.9213 11.1158 26.5022 11.5503C26.088 11.9387 25.6527 12.3039 25.1983 12.6442L23.0876 14.2348L23.0001 14.1335Z" fill="#3C3C3C"/>
<path d="M22.2746 18.3017C22.6418 18.1817 22.9986 18.0321 23.3414 17.8543C23.448 17.774 23.5546 17.6936 23.6684 17.608C24.1234 17.3542 24.6211 17.0683 25.0938 16.7789C25.3039 16.6601 25.4974 16.5143 25.6695 16.3451C25.836 16.0885 26.0876 15.8989 26.3802 15.8096C26.6008 15.777 27.3816 17.1386 27.2167 17.4077C26.8451 17.8805 26.3698 18.2615 25.8275 18.5214C25.5189 18.7404 25.2442 19.0037 25.0124 19.3028C24.6786 19.5933 24.3247 19.86 23.9534 20.1007C23.7402 20.2614 23.5199 20.4274 23.271 20.5259C22.9152 20.6975 22.573 20.8958 22.2472 21.1191C22.027 21.3328 21.8334 21.5723 21.6704 21.8323C21.6324 21.8883 21.5909 21.9419 21.5462 21.9928C21.3472 22.1427 21.2064 22.0594 20.8262 21.5548L20.5316 21.1639C20.2944 20.8841 20.1744 20.5235 20.1965 20.1573C20.3856 19.6192 20.75 19.1602 21.2311 18.854C21.5328 18.6223 21.8609 18.4274 22.2087 18.2733L22.2746 18.3017Z" fill="#3C3C3C"/>
<path d="M54.1795 67.354L56.4347 65.9108C56.6906 65.718 56.9464 65.5253 57.2094 65.3271C58.2457 64.7801 59.291 64.2599 60.2989 63.6898C60.7522 63.4485 61.1626 63.1504 61.5891 62.8736C62.1041 62.4731 62.674 62.1487 63.2813 61.9104C63.4805 61.8495 63.6163 62.1037 63.6722 62.4292C63.7189 62.81 63.6028 63.1929 63.3525 63.4836C62.4203 64.3808 61.4008 65.1827 60.3092 65.8771C59.6583 66.3387 59.0496 66.8571 58.4902 67.4261C57.7795 67.9616 57.0689 68.4972 56.3582 69.0327L55.0434 70.0235C54.3754 70.5269 53.7073 71.0303 53.0393 71.5337C52.7959 71.753 52.5675 71.9883 52.3557 72.2382L52.0344 72.6252C51.9097 72.7306 51.7792 72.8289 51.6435 72.9197C51.5353 73.0124 51.4213 73.0983 51.3024 73.1768C50.826 73.4466 50.5696 73.3724 50.1628 72.9213C50.0717 72.8005 49.986 72.6868 49.9004 72.5731C49.6181 72.2511 49.5351 71.8003 49.6841 71.3989C49.8996 70.8377 50.2266 70.326 50.6453 69.8946C51.0663 69.5005 51.5087 69.13 51.9705 68.7846C52.6812 68.2491 53.4294 67.7633 54.1508 67.2419L54.1795 67.354Z" fill="#3C3C3C"/>
<path d="M55.0929 62.8439C54.6085 63.0706 54.1362 63.3224 53.6779 63.5982C53.5216 63.716 53.3652 63.8338 53.2089 63.9516C52.6046 64.3178 51.9754 64.6806 51.3854 65.0806C51.1269 65.2621 50.8871 65.4689 50.6696 65.698C50.418 66.0268 50.0813 66.2805 49.6959 66.4317C49.4256 66.5017 48.6945 65.1027 48.966 64.7532C49.4895 64.1464 50.1117 63.6323 50.8064 63.2327C51.221 62.9447 51.5992 62.6074 51.9324 62.2281C52.3731 61.8961 52.8279 61.5534 53.2827 61.2106C53.5599 61.0018 53.8371 60.7929 54.1142 60.584C54.5407 60.2627 55.0349 60.0462 55.4418 59.7285C55.7485 59.4532 56.0345 59.1557 56.2976 58.8385C56.3687 58.7849 56.4076 58.6887 56.4787 58.6352C56.7416 58.437 56.9162 58.506 57.3035 59.0053C57.3962 59.1135 57.4821 59.2275 57.5606 59.3464C57.8219 59.6283 57.9262 60.0215 57.8388 60.3958C57.5135 61.05 57.0281 61.6113 56.4276 62.0275C56.0199 62.3511 55.588 62.643 55.1357 62.9007L55.0929 62.8439Z" fill="#3C3C3C"/>
<path d="M37.2101 34.6914C36.4973 35.1059 35.7775 35.5258 35.0684 35.9599C34.8419 36.1519 34.6047 36.3307 34.3577 36.4954C33.4031 37.003 32.4432 37.5035 31.5261 38.0609C31.1287 38.3214 30.7489 38.6076 30.389 38.9178C29.9651 39.3632 29.4547 39.7174 28.8892 39.9588C28.7025 40.0215 28.4668 39.6643 28.3537 39.2481C28.2406 38.8319 28.1593 38.2803 28.4364 38.0715C29.2806 37.1698 30.2541 36.3986 31.3251 35.7833C31.9591 35.3664 32.55 34.8875 33.0892 34.3537C33.7572 33.8503 34.4628 33.3966 35.1593 32.9163L36.4441 32.0484C37.0695 31.5771 37.7485 31.1769 38.3132 30.6399C38.8036 30.2704 39.1994 29.805 39.6684 29.407C39.7601 29.3043 39.8712 29.2206 39.9953 29.1607C40.3832 28.9759 40.8478 29.0946 41.0994 29.443C41.169 29.5353 41.2386 29.6277 41.3029 29.713C41.4946 30.0341 41.5219 30.4273 41.3765 30.7718L41.2298 31.2278C41.1765 31.3571 41.108 31.4797 41.026 31.5931C40.8717 31.8319 40.712 32.0636 40.5417 32.2811C40.3806 32.5078 40.2038 32.7229 40.0127 32.9248L39.3589 33.4175C38.7051 33.9102 37.9799 34.323 37.2922 34.7855L37.2101 34.6914Z" fill="#3C3C3C"/>
<path d="M40.4117 38.4964L37.4136 40.4324C37.0654 40.6949 36.703 40.968 36.3689 41.2197C35.0698 42.0538 33.694 42.8008 32.4056 43.6491C31.8347 44.0292 31.2866 44.4423 30.7639 44.8862C30.1364 45.5032 29.4208 46.0236 28.6406 46.4306C28.3828 46.5468 28.1185 46.1666 28.0462 45.6417C27.8891 45.1313 27.9908 44.5765 28.3186 44.155C29.5937 42.905 31.0042 41.801 32.5239 40.8636C33.4588 40.3151 34.2293 39.4893 35.1213 38.8394L38.0798 36.7326L39.8636 35.3884L41.2139 34.3709C41.6687 34.0281 42.1165 33.6907 42.5642 33.3533C43.2749 32.8178 43.818 32.1634 44.4414 31.5711C44.5792 31.4396 44.7318 31.3246 44.8962 31.2283C45.5005 30.8621 45.7675 30.906 46.2363 31.1879C46.337 31.2538 46.4329 31.3267 46.5233 31.4062C46.8051 31.6618 46.7919 32.1175 46.5367 32.6217C46.1593 33.354 45.673 34.0248 45.0943 34.6112C44.5528 35.2087 43.9704 35.7813 43.379 36.3272C42.9315 36.7179 42.4565 37.0759 41.9576 37.3983L40.5041 38.4268L40.4117 38.4964Z" fill="#3C3C3C"/>
<path d="M41.9114 44.5085L40.2923 45.4946C40.1075 45.6339 39.9298 45.7677 39.745 45.907C39.034 46.309 38.3123 46.6969 37.6281 47.1345C37.3257 47.3234 37.0403 47.5384 36.7753 47.7771C36.4704 48.1237 36.098 48.4043 35.6808 48.6019C35.3999 48.7022 34.8186 47.4577 35.1861 47.0582C35.8423 46.3853 36.5972 45.8165 37.4248 45.3712C37.8868 45.0285 38.3188 44.647 38.7161 44.231C39.2136 43.8561 39.7181 43.4759 40.2298 43.0903L41.1608 42.3887C41.6534 42.0573 42.1279 41.6998 42.5822 41.3177C42.8921 40.9788 43.1729 40.6144 43.4216 40.2283C43.4997 40.1694 43.5297 40.0465 43.5972 39.9734C43.8511 39.7041 44.0416 39.7499 44.4964 40.1761C44.5821 40.2898 44.7104 40.3713 44.8103 40.4743C45.156 40.728 45.3069 41.1702 45.1884 41.5823C44.8002 42.3441 44.2233 42.9937 43.5126 43.4691C43.008 43.8493 42.5034 44.2295 41.9613 44.56L41.9114 44.5085Z" fill="#3C3C3C"/>
</g>
</svg>
