<svg width="67" height="65" viewBox="0 0 67 65" fill="none" xmlns="http://www.w3.org/2000/svg">
<g opacity="0.1">
<path d="M16.059 63.7393C15.8767 64.1045 16.2961 64.3966 16.9708 64.7343C17.2901 64.8422 17.636 64.8422 17.9554 64.7343C18.162 64.512 18.351 64.274 18.5207 64.0223C18.7111 63.5441 18.8249 63.0389 18.858 62.5252C18.858 62.1417 18.9309 61.7309 18.9492 61.3658C18.9674 61.0006 18.9492 60.6629 18.9492 60.4529C18.9259 59.5864 18.7627 58.7294 18.466 57.9151C17.8396 56.2744 16.9731 54.7361 15.8949 53.3506C15.6373 53.037 15.3291 52.7686 14.9832 52.5564L11.6828 50.2468C11.4739 50.1404 11.2976 49.9796 11.1723 49.7813C10.5934 49.289 9.92457 48.9139 9.20297 48.6767C8.71065 48.5032 8.20009 48.348 7.78982 48.2293C7.48965 48.1665 7.1846 48.1298 6.8781 48.1198C6.26793 48.1383 5.65922 48.1901 5.05468 48.275C4.46832 48.3375 3.88664 48.4382 3.31331 48.5762C3.15832 48.6219 2.97598 48.5762 2.84834 48.7771C2.53835 49.27 2.20102 49.2153 1.86369 49.2792C1.39936 49.3984 0.956421 49.5893 0.550823 49.8452C0.336874 50.0371 0.163303 50.2699 0.040266 50.5298C-0.105608 50.758 0.186138 51.3971 0.259075 51.4427C0.505238 51.6162 0.432301 51.9631 0.49612 52.246C0.513958 52.3449 0.538324 52.4425 0.569057 52.5382C0.969496 52.768 1.39463 52.9518 1.83634 53.0859C2.25351 53.263 2.67954 53.4184 3.11273 53.5515H3.59594C3.93525 53.5766 4.27303 53.6193 4.60794 53.6793L5.15497 53.7706L5.63818 53.9166L6.22167 54.0992C6.38627 54.1406 6.55852 54.1406 6.72311 54.0992C7.09592 54.2232 7.45371 54.3886 7.78982 54.5922C8.1319 54.7812 8.46364 54.9884 8.78358 55.2129C9.16937 55.4809 9.61926 55.6416 10.0873 55.6785C10.1853 55.6784 10.2771 55.7261 10.3335 55.8063L11.309 56.5184L11.8196 56.8653L12.2937 57.2761C12.4554 57.4122 12.6021 57.5652 12.7313 57.7325L13.096 58.2528C13.1596 58.3058 13.2266 58.3546 13.2966 58.3989C13.387 58.4472 13.4674 58.5123 13.5336 58.5906C14.1245 59.4166 14.5573 60.3452 14.81 61.3293C14.9142 61.5872 15.0424 61.8348 15.1929 62.0687C15.3118 62.3317 15.4005 62.6073 15.4573 62.8903C15.4573 62.9725 15.6032 63.1185 15.7582 63.2829C15.9132 63.4472 16.0864 63.6663 16.059 63.7393Z" fill="#3C3C3C"/>
<path d="M35.6426 58.3258C35.5276 59.1616 35.8231 60.0015 36.4358 60.5807C36.6273 60.8089 37.2655 60.8728 37.3475 60.5807C37.5937 60.106 37.8581 59.6678 38.0769 59.1109C38.1867 58.7879 38.2631 58.4545 38.3048 58.1159C38.4659 57.4481 38.5876 56.7713 38.6695 56.0892C38.7448 55.3066 38.7753 54.5202 38.7607 53.734V52.7024L38.706 51.8808C38.6018 50.1328 38.2613 48.4069 37.694 46.7504C36.5409 43.3688 34.8642 40.1896 32.7251 37.3294C32.2607 36.6897 31.7221 36.1074 31.1205 35.5949C29.0053 33.8878 26.9905 32.1716 24.8479 30.5467C24.464 30.2986 24.1223 29.9904 23.8359 29.6338C23.4673 29.2757 23.0571 28.9631 22.6142 28.7026C21.8114 28.1852 20.9805 27.7128 20.1253 27.2877C19.2503 26.8503 18.3525 26.4602 17.4357 26.1192C16.8871 25.9183 16.3269 25.7506 15.7582 25.6171C13.3509 25.1989 10.9023 25.0702 8.46448 25.2337C8.10174 25.2159 7.74139 25.3014 7.42513 25.4801C6.78272 25.9151 6.03035 26.1588 5.25525 26.1831C4.74994 26.2929 4.25327 26.4393 3.76916 26.6212C3.29507 26.8312 2.85745 27.0868 2.37424 27.3333C1.9457 27.6542 1.55968 28.0285 1.22549 28.447C0.906387 28.7848 1.37136 29.2777 1.52635 29.296C1.99132 29.3508 1.79074 29.7616 1.86368 30.0172C1.88191 30.1105 1.91582 30.2 1.96397 30.2819C2.85007 30.3442 3.73249 30.4508 4.60794 30.6014C5.89345 30.857 7.10603 31.1583 7.34307 31.1948C8.4939 31.3093 9.63809 31.483 10.7711 31.7152C12.0804 32.0224 13.3568 32.4565 14.5821 33.0115C14.9642 33.1517 15.3624 33.2437 15.7673 33.2853C16.6615 33.6788 17.5214 34.146 18.3383 34.682C19.5509 35.4215 20.6814 36.2978 20.7726 36.3526C21.2568 36.6509 21.7254 36.9739 22.1766 37.3203C22.6534 37.6566 23.1752 37.924 23.7265 38.1145C23.9427 38.2042 24.1359 38.3415 24.2918 38.5162C25.012 39.2008 25.7414 39.8581 26.4708 40.5336C27.2291 41.1802 27.9534 41.8658 28.6407 42.5876C28.9948 42.956 29.3181 43.3529 29.6071 43.7744C29.9079 44.1761 30.1997 44.596 30.5188 45.0251C30.6392 45.1686 30.767 45.3057 30.9017 45.4359C31.0778 45.5944 31.2285 45.7791 31.3484 45.9836C32.6638 48.027 33.6197 50.281 34.1748 52.6477C34.6042 53.8831 34.9096 55.1583 35.0865 56.4544C35.3342 57.0579 35.5205 57.6849 35.6426 58.3258Z" fill="#3C3C3C"/>
<path d="M63.7234 51.4336C63.6865 51.7734 63.6865 52.1162 63.7234 52.456C63.7533 52.7657 63.8144 53.0715 63.9057 53.3689C64.1208 53.9953 64.4281 54.5861 64.8174 55.1216C65.0727 55.4777 65.875 55.4868 66.0209 55.0577C66.2853 54.2361 66.5588 53.3872 66.7776 52.5108C66.8534 51.951 66.893 51.3869 66.8961 50.8219C66.8961 50.3655 66.8961 49.8269 66.9691 49.2518C67.042 48.6767 66.9691 48.0468 66.9235 47.426C66.8455 45.1011 66.5956 42.7851 66.1759 40.4972C65.6769 37.6519 64.7935 34.8879 63.5501 32.2812C60.9855 27.0728 57.6642 22.2737 53.6945 18.0401C52.8128 17.1055 51.8619 16.2389 50.85 15.4475C47.3581 12.7728 43.8936 10.1528 40.2377 7.71539C39.5824 7.37296 38.983 6.93279 38.4598 6.40996C37.8178 5.85533 37.1178 5.37174 36.372 4.9676C35.7885 4.65722 35.1594 4.25555 34.4392 3.91778L32.1872 2.89535C29.8391 1.88595 27.3956 1.11526 24.8936 0.594871C20.9735 -0.0161289 16.9947 -0.157099 13.0413 0.174943C12.4713 0.143177 11.9021 0.249653 11.382 0.485324C10.3032 1.08898 9.1111 1.46199 7.881 1.58079C7.06958 1.79988 6.26727 2.00985 5.47409 2.26545C4.6809 2.52106 3.92418 2.89535 3.16745 3.23312C2.45868 3.68011 1.79865 4.20026 1.19816 4.78502C0.632896 5.26885 1.33492 5.88049 1.59019 5.88962C2.3378 5.88962 1.964 6.45561 2.04605 6.80251C2.06349 6.92737 2.11037 7.04628 2.18281 7.1494C2.65365 7.15836 3.12416 7.11859 3.58684 7.03073L4.23415 6.93944H4.98176L6.58637 6.87554L8.21834 6.9577C8.7098 6.96978 9.20003 7.01246 9.6862 7.0855C10.2691 7.17754 10.8564 7.23849 11.4458 7.26808C11.5005 7.26808 12.2663 7.35937 13.3969 7.35937C14.8004 7.43429 16.198 7.59588 17.5816 7.8432C19.9164 8.24222 22.2066 8.86902 24.4195 9.71462C25.0934 9.93791 25.7861 10.0998 26.489 10.1984C26.5711 10.1984 27.1819 10.4814 28.0481 10.8557C28.9142 11.23 30.0174 11.8234 31.1297 12.3711C33.3451 13.5122 35.4512 14.845 35.6244 14.9272C36.5361 15.3836 37.3293 15.9496 38.1954 16.4426C39.0521 16.9849 39.9703 17.4232 40.9306 17.748C41.2987 17.9193 41.6397 18.1438 41.9426 18.4144C44.7113 20.5024 47.3624 22.7424 49.8836 25.1242C50.4944 25.7632 51.087 26.4296 51.707 27.096L53.3481 29.1774C53.5578 29.4239 53.7948 29.6429 54.0136 29.8803C54.2918 30.1697 54.5536 30.4744 54.7977 30.7932C56.0133 32.5277 57.1195 34.3078 58.1163 36.1336C58.6451 37.0465 59.101 37.9594 59.5842 38.9179C60.0674 39.8764 60.3956 40.8532 60.7238 41.8391C60.8571 42.2501 61.0154 42.6526 61.1979 43.0441C61.4258 43.5919 61.7267 44.24 61.9364 44.9156C62.1461 45.5911 62.4105 46.2666 62.5837 46.8509C62.7569 47.4351 62.8117 47.9555 62.8117 48.2385C62.9642 48.7837 63.1468 49.3201 63.3587 49.8451C63.5519 50.3555 63.6746 50.8899 63.7234 51.4336Z" fill="#3C3C3C"/>
</g>
</svg>
